<?xml version="1.0" encoding="utf-8"?>
<!-- Generator: Adobe Illustrator 25.1.0, SVG Export Plug-In . SVG Version: 6.00 Build 0)  -->
<svg version="1.1" id="Layer_1" xmlns="http://www.w3.org/2000/svg" xmlns:xlink="http://www.w3.org/1999/xlink" x="0px" y="0px"
	 viewBox="0 0 933 944" style="enable-background:new 0 0 933 944;" xml:space="preserve">
<style type="text/css">
	.st0{opacity:0.5;}
	.st1{fill:#CCFFCC;}
	.st2{fill:#FFFFCC;}
	.st3{fill:#FFCCCC;}
	.st4{fill:#CCCCFF;}
	.st5{font-family:'MyriadPro-Bold';}
	.st6{font-size:36px;}
	.st7{font-family:'MyriadPro-Regular';}
	.st8{font-size:24px;}
</style>
<g class="st0">
	<path class="st1" d="M485.84,931.15c-73.72,0-143.03-28.71-195.16-80.84s-80.84-121.44-80.84-195.16
		c0-73.72,28.71-143.03,80.84-195.16c52.13-52.13,121.44-80.84,195.16-80.84c73.72,0,143.03,28.71,195.16,80.84
		c52.13,52.13,80.84,121.44,80.84,195.16c0,73.72-28.71,143.03-80.84,195.16C628.87,902.44,559.56,931.15,485.84,931.15z"/>
	<path d="M485.84,379.65c37.19,0,73.27,7.28,107.24,21.65c32.81,13.88,62.27,33.74,87.57,59.04c25.3,25.3,45.17,54.76,59.04,87.57
		c14.37,33.96,21.65,70.04,21.65,107.24s-7.28,73.27-21.65,107.24c-13.88,32.81-33.74,62.27-59.04,87.57
		c-25.3,25.3-54.77,45.17-87.57,59.04c-33.96,14.37-70.04,21.65-107.24,21.65c-37.19,0-73.27-7.28-107.24-21.65
		c-32.81-13.88-62.27-33.74-87.57-59.04s-45.17-54.76-59.04-87.57c-14.37-33.96-21.65-70.04-21.65-107.24s7.28-73.27,21.65-107.24
		c13.88-32.81,33.74-62.27,59.04-87.57s54.76-45.17,87.57-59.04C412.57,386.93,448.65,379.65,485.84,379.65 M485.84,378.65
		c-152.71,0-276.5,123.79-276.5,276.5s123.79,276.5,276.5,276.5s276.5-123.79,276.5-276.5S638.55,378.65,485.84,378.65
		L485.84,378.65z"/>
</g>
<g class="st0">
	<path class="st2" d="M297.84,738.15c-73.72,0-143.03-28.71-195.16-80.84S21.84,535.87,21.84,462.15s28.71-143.03,80.84-195.16
		c52.13-52.13,121.44-80.84,195.16-80.84S440.87,214.86,493,266.99c52.13,52.13,80.84,121.44,80.84,195.16S545.13,605.18,493,657.31
		C440.87,709.44,371.56,738.15,297.84,738.15z"/>
	<path d="M297.84,186.65c37.19,0,73.27,7.28,107.24,21.65c32.81,13.88,62.27,33.74,87.57,59.04c25.3,25.3,45.17,54.76,59.04,87.57
		c14.37,33.96,21.65,70.04,21.65,107.24c0,37.19-7.28,73.27-21.65,107.24c-13.88,32.81-33.74,62.27-59.04,87.57
		c-25.3,25.3-54.76,45.17-87.57,59.04c-33.96,14.37-70.04,21.65-107.24,21.65S224.57,730.37,190.6,716
		c-32.81-13.88-62.27-33.74-87.57-59.04c-25.3-25.3-45.17-54.77-59.04-87.57c-14.37-33.96-21.65-70.04-21.65-107.24
		c0-37.19,7.28-73.27,21.65-107.24c13.88-32.81,33.74-62.27,59.04-87.57c25.3-25.3,54.76-45.17,87.57-59.04
		C224.57,193.93,260.65,186.65,297.84,186.65 M297.84,185.65c-152.71,0-276.5,123.79-276.5,276.5s123.79,276.5,276.5,276.5
		s276.5-123.79,276.5-276.5S450.55,185.65,297.84,185.65L297.84,185.65z"/>
</g>
<g class="st0">
	<path class="st3" d="M485.84,568.15c-73.72,0-143.03-28.71-195.16-80.84c-52.13-52.13-80.84-121.44-80.84-195.16
		c0-73.72,28.71-143.03,80.84-195.16c52.13-52.13,121.44-80.84,195.16-80.84c73.72,0,143.03,28.71,195.16,80.84
		c52.13,52.13,80.84,121.44,80.84,195.16c0,73.72-28.71,143.03-80.84,195.16C628.87,539.44,559.56,568.15,485.84,568.15z"/>
	<path d="M485.84,16.65c37.19,0,73.27,7.28,107.24,21.65c32.81,13.88,62.27,33.74,87.57,59.04c25.3,25.3,45.17,54.77,59.04,87.57
		c14.37,33.96,21.65,70.04,21.65,107.24s-7.28,73.27-21.65,107.24c-13.88,32.81-33.74,62.27-59.04,87.57
		c-25.3,25.3-54.77,45.17-87.57,59.04c-33.96,14.37-70.04,21.65-107.24,21.65c-37.19,0-73.27-7.28-107.24-21.65
		c-32.81-13.88-62.27-33.74-87.57-59.04c-25.3-25.3-45.17-54.77-59.04-87.57c-14.37-33.96-21.65-70.04-21.65-107.24
		s7.28-73.27,21.65-107.24c13.88-32.81,33.74-62.27,59.04-87.57c25.3-25.3,54.76-45.17,87.57-59.04
		C412.57,23.93,448.65,16.65,485.84,16.65 M485.84,15.65c-152.71,0-276.5,123.79-276.5,276.5s123.79,276.5,276.5,276.5
		s276.5-123.79,276.5-276.5S638.55,15.65,485.84,15.65L485.84,15.65z"/>
</g>
<g class="st0">
	<path class="st4" d="M638.84,751.15c-73.72,0-143.03-28.71-195.16-80.84s-80.84-121.44-80.84-195.16
		c0-73.72,28.71-143.03,80.84-195.16c52.13-52.13,121.44-80.84,195.16-80.84S781.87,227.86,834,279.99
		c52.13,52.13,80.84,121.44,80.84,195.16c0,73.72-28.71,143.03-80.84,195.16C781.87,722.44,712.56,751.15,638.84,751.15z"/>
	<path d="M638.84,199.65c37.19,0,73.27,7.28,107.24,21.65c32.81,13.88,62.27,33.74,87.57,59.04s45.17,54.76,59.04,87.57
		c14.37,33.96,21.65,70.04,21.65,107.24c0,37.19-7.28,73.27-21.65,107.24c-13.88,32.81-33.74,62.27-59.04,87.57
		s-54.77,45.17-87.57,59.04c-33.96,14.37-70.04,21.65-107.24,21.65c-37.19,0-73.27-7.28-107.24-21.65
		c-32.81-13.88-62.27-33.74-87.57-59.04s-45.17-54.77-59.04-87.57c-14.37-33.96-21.65-70.04-21.65-107.24
		c0-37.19,7.28-73.27,21.65-107.24c13.88-32.81,33.74-62.27,59.04-87.57s54.76-45.17,87.57-59.04
		C565.57,206.93,601.65,199.65,638.84,199.65 M638.84,198.65c-152.71,0-276.5,123.79-276.5,276.5s123.79,276.5,276.5,276.5
		s276.5-123.79,276.5-276.5S791.55,198.65,638.84,198.65L638.84,198.65z"/>
</g>
<text transform="matrix(1 0 0 1 329.0649 479.3762)" class="st5 st6">DIGITAL MEDIUM</text>
<text transform="matrix(1 0 0 1 356.408 150.1945)" class="st5 st6">PROCEDURAL</text>
<text transform="matrix(1 0 0 1 674.8856 466.1032)" class="st5 st6">PARTICIPATORY</text>
<text transform="matrix(1 0 0 1 401.9292 801.1032)" class="st5 st6">SPATIAL</text>
<text transform="matrix(1 0 0 1 9.7943 466.1037)" class="st5 st6">ENCYCLOPEDIC</text>
<text transform="matrix(1 0 0 1 329.8463 826.9221)" class="st7 st8">Navigable as a virtual space</text>
<text transform="matrix(1 0 0 1 310.0699 178.0129)" class="st7 st8">Made of executable procedures</text>
<text transform="matrix(1 0 0 1 21.3397 494.7399)"><tspan x="0" y="0" class="st7 st8">stores high capacity </tspan><tspan x="0" y="28.8" class="st7 st8">of multimedia information as data</tspan></text>
<text transform="matrix(1 0 0 1 662.7029 494.0129)" class="st7 st8">Invites human interaction</text>
</svg>
