<?xml version="1.0" encoding="utf-8"?>
<!-- Generator: Adobe Illustrator 25.1.0, SVG Export Plug-In . SVG Version: 6.00 Build 0)  -->
<svg version="1.1" id="Layer_1" xmlns="http://www.w3.org/2000/svg" xmlns:xlink="http://www.w3.org/1999/xlink" x="0px" y="0px"
	 viewBox="0 0 1174 974" style="enable-background:new 0 0 1174 974;" xml:space="preserve">
<style type="text/css">
	.st0{opacity:0.5;}
	.st1{fill:#CCFFCC;}
	.st2{fill:#FFFFCC;}
	.st3{fill:#FFCCCC;}
	.st4{fill:#CCCCFF;}
	.st5{font-family:'MyriadPro-Bold';}
	.st6{font-size:36px;}
	.st7{font-family:'MyriadPro-Regular';}
	.st8{font-size:24px;}
</style>
<g class="st0">
	<path class="st1" d="M580.87,964.74c-73.72,0-143.03-28.71-195.16-80.84c-52.13-52.13-80.84-121.44-80.84-195.16
		c0-73.72,28.71-143.03,80.84-195.16c52.13-52.13,121.44-80.84,195.16-80.84c73.72,0,143.03,28.71,195.16,80.84
		c52.13,52.13,80.84,121.44,80.84,195.16c0,73.72-28.71,143.03-80.84,195.16C723.91,936.03,654.6,964.74,580.87,964.74z"/>
	<path d="M580.87,413.24c37.19,0,73.27,7.28,107.24,21.65c32.81,13.88,62.27,33.74,87.57,59.04c25.3,25.3,45.17,54.76,59.04,87.57
		c14.37,33.96,21.65,70.04,21.65,107.24s-7.28,73.27-21.65,107.24c-13.88,32.81-33.74,62.27-59.04,87.57
		c-25.3,25.3-54.77,45.17-87.57,59.04c-33.96,14.37-70.04,21.65-107.24,21.65c-37.19,0-73.27-7.28-107.24-21.65
		c-32.81-13.88-62.27-33.74-87.57-59.04s-45.17-54.76-59.04-87.57c-14.37-33.96-21.65-70.04-21.65-107.24s7.28-73.27,21.65-107.24
		c13.88-32.81,33.74-62.27,59.04-87.57s54.76-45.17,87.57-59.04C507.6,420.52,543.68,413.24,580.87,413.24 M580.87,412.24
		c-152.71,0-276.5,123.79-276.5,276.5s123.79,276.5,276.5,276.5s276.5-123.79,276.5-276.5S733.58,412.24,580.87,412.24
		L580.87,412.24z"/>
</g>
<g class="st0">
	<path class="st2" d="M392.87,771.74c-73.72,0-143.03-28.71-195.16-80.84c-52.13-52.13-80.84-121.44-80.84-195.16
		c0-73.72,28.71-143.03,80.84-195.16c52.13-52.13,121.44-80.84,195.16-80.84s143.03,28.71,195.16,80.84
		c52.13,52.13,80.84,121.44,80.84,195.16c0,73.72-28.71,143.03-80.84,195.16C535.91,743.03,466.6,771.74,392.87,771.74z"/>
	<path d="M392.87,220.24c37.19,0,73.27,7.28,107.24,21.65c32.81,13.88,62.27,33.74,87.57,59.04c25.3,25.3,45.17,54.76,59.04,87.57
		c14.37,33.96,21.65,70.04,21.65,107.24c0,37.19-7.28,73.27-21.65,107.24c-13.88,32.81-33.74,62.27-59.04,87.57
		c-25.3,25.3-54.76,45.17-87.57,59.04c-33.96,14.37-70.04,21.65-107.24,21.65s-73.27-7.28-107.24-21.65
		c-32.81-13.88-62.27-33.74-87.57-59.04c-25.3-25.3-45.17-54.77-59.04-87.57c-14.37-33.96-21.65-70.04-21.65-107.24
		c0-37.19,7.28-73.27,21.65-107.24c13.88-32.81,33.74-62.27,59.04-87.57c25.3-25.3,54.76-45.17,87.57-59.04
		C319.6,227.52,355.68,220.24,392.87,220.24 M392.87,219.24c-152.71,0-276.5,123.79-276.5,276.5s123.79,276.5,276.5,276.5
		s276.5-123.79,276.5-276.5S545.58,219.24,392.87,219.24L392.87,219.24z"/>
</g>
<g class="st0">
	<path class="st3" d="M580.87,601.74c-73.72,0-143.03-28.71-195.16-80.84c-52.13-52.13-80.84-121.44-80.84-195.16
		s28.71-143.03,80.84-195.16c52.13-52.13,121.44-80.84,195.16-80.84c73.72,0,143.03,28.71,195.16,80.84
		c52.13,52.13,80.84,121.44,80.84,195.16c0,73.72-28.71,143.03-80.84,195.16C723.91,573.03,654.6,601.74,580.87,601.74z"/>
	<path d="M580.87,50.24c37.19,0,73.27,7.28,107.24,21.65c32.81,13.88,62.27,33.74,87.57,59.04c25.3,25.3,45.17,54.77,59.04,87.57
		c14.37,33.96,21.65,70.04,21.65,107.24s-7.28,73.27-21.65,107.24c-13.88,32.81-33.74,62.27-59.04,87.57
		c-25.3,25.3-54.77,45.17-87.57,59.04c-33.96,14.37-70.04,21.65-107.24,21.65c-37.19,0-73.27-7.28-107.24-21.65
		c-32.81-13.88-62.27-33.74-87.57-59.04c-25.3-25.3-45.17-54.77-59.04-87.57c-14.37-33.96-21.65-70.04-21.65-107.24
		s7.28-73.27,21.65-107.24c13.88-32.81,33.74-62.27,59.04-87.57c25.3-25.3,54.76-45.17,87.57-59.04
		C507.6,57.52,543.68,50.24,580.87,50.24 M580.87,49.24c-152.71,0-276.5,123.79-276.5,276.5s123.79,276.5,276.5,276.5
		s276.5-123.79,276.5-276.5S733.58,49.24,580.87,49.24L580.87,49.24z"/>
</g>
<g class="st0">
	<path class="st4" d="M733.87,784.74c-73.72,0-143.03-28.71-195.16-80.84c-52.13-52.13-80.84-121.44-80.84-195.16
		c0-73.72,28.71-143.03,80.84-195.16c52.13-52.13,121.44-80.84,195.16-80.84s143.03,28.71,195.16,80.84
		c52.13,52.13,80.84,121.44,80.84,195.16c0,73.72-28.71,143.03-80.84,195.16C876.91,756.03,807.6,784.74,733.87,784.74z"/>
	<path d="M733.87,233.24c37.19,0,73.27,7.28,107.24,21.65c32.81,13.88,62.27,33.74,87.57,59.04s45.17,54.76,59.04,87.57
		c14.37,33.96,21.65,70.04,21.65,107.24c0,37.19-7.28,73.27-21.65,107.24c-13.88,32.81-33.74,62.27-59.04,87.57
		s-54.77,45.17-87.57,59.04c-33.96,14.37-70.04,21.65-107.24,21.65c-37.19,0-73.27-7.28-107.24-21.65
		c-32.81-13.88-62.27-33.74-87.57-59.04s-45.17-54.77-59.04-87.57c-14.37-33.96-21.65-70.04-21.65-107.24
		c0-37.19,7.28-73.27,21.65-107.24c13.88-32.81,33.74-62.27,59.04-87.57s54.76-45.17,87.57-59.04
		C660.6,240.52,696.68,233.24,733.87,233.24 M733.87,232.24c-152.71,0-276.5,123.79-276.5,276.5s123.79,276.5,276.5,276.5
		s276.5-123.79,276.5-276.5S886.58,232.24,733.87,232.24L733.87,232.24z"/>
</g>
<text transform="matrix(1 0 0 1 424.0984 512.9655)" class="st5 st6">DIGITAL MEDIUM</text>
<text transform="matrix(1 0 0 1 451.4414 183.7839)" class="st5 st6">PROCEDURAL</text>
<text transform="matrix(1 0 0 1 769.919 499.6926)" class="st5 st6">PARTICIPATORY</text>
<text transform="matrix(1 0 0 1 496.9626 834.6926)" class="st5 st6">SPATIAL</text>
<text transform="matrix(1 0 0 1 104.8277 499.6931)" class="st5 st6">ENCYCLOPEDIC</text>
<text transform="matrix(1 0 0 1 424.8797 860.5114)" class="st7 st8">Navigable as a virtual space</text>
<text transform="matrix(1 0 0 1 405.1034 211.6022)" class="st7 st8">Made of executable procedures</text>
<text transform="matrix(1 0 0 1 116.3731 528.3293)"><tspan x="0" y="0" class="st7 st8">stores high capacity </tspan><tspan x="0" y="28.8" class="st7 st8">of multimedia information as data</tspan></text>
<text transform="matrix(1 0 0 1 757.7364 527.6022)" class="st7 st8">Invites human interaction</text>
<text transform="matrix(1 0 0 1 7.8273 334.7839)"><tspan x="0" y="0" class="st7 st8">Databases</tspan><tspan x="0" y="28.8" class="st7 st8">Archives</tspan><tspan x="0" y="57.6" class="st7 st8">Encyclopedias</tspan><tspan x="0" y="86.4" class="st7 st8">Portable Media Players</tspan><tspan x="0" y="115.2" class="st7 st8">Organizational Conventions</tspan></text>
<text transform="matrix(1 0 0 1 202.0099 809.966)"><tspan x="0" y="0" class="st7 st8">Information Spaces</tspan><tspan x="0" y="28.8" class="st7 st8">Virtual Landscapes</tspan><tspan x="0" y="57.6" class="st7 st8">Augmented Reality</tspan><tspan x="0" y="86.4" class="st7 st8">Maps</tspan><tspan x="0" y="115.2" class="st7 st8">GPS Devices</tspan><tspan x="0" y="144" class="st7 st8">Navigational Conventions</tspan></text>
<text transform="matrix(1 0 0 1 879.464 569.2385)"><tspan x="0" y="0" class="st7 st8">Blogs &amp; Instant Messaging</tspan><tspan x="0" y="28.8" class="st7 st8">Social Media</tspan><tspan x="0" y="57.6" class="st7 st8">Forums</tspan><tspan x="0" y="86.4" class="st7 st8">Media Sharing Sites</tspan><tspan x="0" y="115.2" class="st7 st8">Recommendation Systems</tspan><tspan x="0" y="144" class="st7 st8">Input Devices</tspan><tspan x="0" y="172.8" class="st7 st8">Icon/Command Conventions</tspan></text>
<text transform="matrix(1 0 0 1 690.8273 25.1477)"><tspan x="0" y="0" class="st7 st8">Game Engines</tspan><tspan x="0" y="28.8" class="st7 st8">Browsers</tspan><tspan x="0" y="57.6" class="st7 st8">Search Engines</tspan><tspan x="0" y="86.4" class="st7 st8">Spread Sheets</tspan><tspan x="0" y="115.2" class="st7 st8">Sensor Devices</tspan><tspan x="0" y="144" class="st7 st8">Control Conventions</tspan></text>
</svg>
